<mxfile host="app.diagrams.net" modified="2023-10-22T08:11:00.780Z" agent="Mozilla/5.0 (X11; Linux x86_64; rv:109.0) Gecko/20100101 Firefox/118.0" etag="B26nbqX54dKOtGhPhAh0" version="22.0.6" type="device">
  <diagram name="Page-1" id="HuM17TKiex0QJR84NEkA">
    <mxGraphModel dx="1274" dy="671" grid="1" gridSize="10" guides="1" tooltips="1" connect="1" arrows="1" fold="1" page="1" pageScale="1" pageWidth="850" pageHeight="1100" math="0" shadow="0">
      <root>
        <mxCell id="0" />
        <mxCell id="1" parent="0" />
        <mxCell id="WopsmW_Y8n9yDPIOGQ2Z-1" value="" style="whiteSpace=wrap;html=1;aspect=fixed;" vertex="1" parent="1">
          <mxGeometry x="50" y="80" width="270" height="270" as="geometry" />
        </mxCell>
        <mxCell id="WopsmW_Y8n9yDPIOGQ2Z-2" value="Masny Quiz z HTML i CSS" style="text;html=1;strokeColor=none;fillColor=none;align=center;verticalAlign=middle;whiteSpace=wrap;rounded=0;" vertex="1" parent="1">
          <mxGeometry x="80" y="40" width="210" height="30" as="geometry" />
        </mxCell>
        <mxCell id="WopsmW_Y8n9yDPIOGQ2Z-3" value="Podawanie imienia" style="rounded=0;whiteSpace=wrap;html=1;" vertex="1" parent="1">
          <mxGeometry x="95" y="200" width="180" height="30" as="geometry" />
        </mxCell>
        <mxCell id="WopsmW_Y8n9yDPIOGQ2Z-4" value="Przywitanie" style="text;html=1;strokeColor=none;fillColor=none;align=center;verticalAlign=middle;whiteSpace=wrap;rounded=0;" vertex="1" parent="1">
          <mxGeometry x="130" y="150" width="110" height="30" as="geometry" />
        </mxCell>
        <mxCell id="WopsmW_Y8n9yDPIOGQ2Z-6" value="Rozpocznij quiz" style="ellipse;whiteSpace=wrap;html=1;" vertex="1" parent="1">
          <mxGeometry x="110" y="270" width="150" height="40" as="geometry" />
        </mxCell>
        <mxCell id="WopsmW_Y8n9yDPIOGQ2Z-7" value="" style="shape=flexArrow;endArrow=classic;html=1;rounded=0;exitX=1;exitY=0.5;exitDx=0;exitDy=0;" edge="1" parent="1" source="WopsmW_Y8n9yDPIOGQ2Z-1" target="WopsmW_Y8n9yDPIOGQ2Z-8">
          <mxGeometry width="50" height="50" relative="1" as="geometry">
            <mxPoint x="400" y="380" as="sourcePoint" />
            <mxPoint x="420" y="210" as="targetPoint" />
            <Array as="points" />
          </mxGeometry>
        </mxCell>
        <mxCell id="WopsmW_Y8n9yDPIOGQ2Z-8" value="" style="whiteSpace=wrap;html=1;aspect=fixed;" vertex="1" parent="1">
          <mxGeometry x="510" y="80" width="270" height="270" as="geometry" />
        </mxCell>
        <mxCell id="WopsmW_Y8n9yDPIOGQ2Z-9" value="Masny Quiz z HTML i CSS" style="text;html=1;strokeColor=none;fillColor=none;align=center;verticalAlign=middle;whiteSpace=wrap;rounded=0;" vertex="1" parent="1">
          <mxGeometry x="540" y="40" width="210" height="30" as="geometry" />
        </mxCell>
        <mxCell id="WopsmW_Y8n9yDPIOGQ2Z-10" value="Pytanie" style="text;html=1;strokeColor=none;fillColor=none;align=center;verticalAlign=middle;whiteSpace=wrap;rounded=0;" vertex="1" parent="1">
          <mxGeometry x="545" y="110" width="200" height="30" as="geometry" />
        </mxCell>
        <mxCell id="WopsmW_Y8n9yDPIOGQ2Z-11" value="Odpowiedź 1" style="ellipse;whiteSpace=wrap;html=1;" vertex="1" parent="1">
          <mxGeometry x="580" y="160" width="120" height="40" as="geometry" />
        </mxCell>
        <mxCell id="WopsmW_Y8n9yDPIOGQ2Z-12" value="Odpowiedź 2" style="ellipse;whiteSpace=wrap;html=1;" vertex="1" parent="1">
          <mxGeometry x="580" y="200" width="120" height="40" as="geometry" />
        </mxCell>
        <mxCell id="WopsmW_Y8n9yDPIOGQ2Z-13" value="Odpowiedź 3" style="ellipse;whiteSpace=wrap;html=1;" vertex="1" parent="1">
          <mxGeometry x="580" y="240" width="120" height="40" as="geometry" />
        </mxCell>
        <mxCell id="WopsmW_Y8n9yDPIOGQ2Z-14" value="Odpowiedź 4" style="ellipse;whiteSpace=wrap;html=1;" vertex="1" parent="1">
          <mxGeometry x="580" y="280" width="120" height="40" as="geometry" />
        </mxCell>
        <mxCell id="WopsmW_Y8n9yDPIOGQ2Z-15" value="" style="shape=flexArrow;endArrow=classic;html=1;rounded=0;exitX=0.53;exitY=1.004;exitDx=0;exitDy=0;exitPerimeter=0;" edge="1" parent="1" source="WopsmW_Y8n9yDPIOGQ2Z-8" target="WopsmW_Y8n9yDPIOGQ2Z-16">
          <mxGeometry width="50" height="50" relative="1" as="geometry">
            <mxPoint x="400" y="380" as="sourcePoint" />
            <mxPoint x="653" y="450" as="targetPoint" />
            <Array as="points">
              <mxPoint x="520" y="420" />
            </Array>
          </mxGeometry>
        </mxCell>
        <mxCell id="WopsmW_Y8n9yDPIOGQ2Z-16" value="" style="whiteSpace=wrap;html=1;aspect=fixed;" vertex="1" parent="1">
          <mxGeometry x="515" y="470" width="270" height="270" as="geometry" />
        </mxCell>
        <mxCell id="WopsmW_Y8n9yDPIOGQ2Z-18" value="Masny Quiz z HTML i CSS" style="text;html=1;strokeColor=none;fillColor=none;align=center;verticalAlign=middle;whiteSpace=wrap;rounded=0;" vertex="1" parent="1">
          <mxGeometry x="540" y="430" width="210" height="30" as="geometry" />
        </mxCell>
        <mxCell id="WopsmW_Y8n9yDPIOGQ2Z-19" value="&lt;h3 class=&quot;result_msg&quot;&gt;Brawo &amp;lt;imię&amp;gt; właśnie ukończyłeś/aś nasz quiz&lt;/h3&gt;" style="text;html=1;strokeColor=none;fillColor=none;align=center;verticalAlign=middle;whiteSpace=wrap;rounded=0;" vertex="1" parent="1">
          <mxGeometry x="535" y="510" width="220" height="40" as="geometry" />
        </mxCell>
        <mxCell id="WopsmW_Y8n9yDPIOGQ2Z-20" value="Uzyskano &amp;lt;ilość poprawnych odpowiedzi&amp;gt;/&amp;lt;ilość pytań&amp;gt; punktów" style="text;html=1;strokeColor=none;fillColor=none;align=center;verticalAlign=middle;whiteSpace=wrap;rounded=0;" vertex="1" parent="1">
          <mxGeometry x="555" y="580" width="180" height="30" as="geometry" />
        </mxCell>
        <mxCell id="WopsmW_Y8n9yDPIOGQ2Z-21" value="Powrót do ekrana startowego" style="ellipse;whiteSpace=wrap;html=1;" vertex="1" parent="1">
          <mxGeometry x="560" y="650" width="170" height="40" as="geometry" />
        </mxCell>
        <mxCell id="WopsmW_Y8n9yDPIOGQ2Z-23" value="" style="shape=flexArrow;endArrow=classic;html=1;rounded=0;entryX=0.5;entryY=1;entryDx=0;entryDy=0;exitX=0;exitY=0.5;exitDx=0;exitDy=0;" edge="1" parent="1" source="WopsmW_Y8n9yDPIOGQ2Z-16" target="WopsmW_Y8n9yDPIOGQ2Z-1">
          <mxGeometry width="50" height="50" relative="1" as="geometry">
            <mxPoint x="400" y="680" as="sourcePoint" />
            <mxPoint x="450" y="630" as="targetPoint" />
          </mxGeometry>
        </mxCell>
      </root>
    </mxGraphModel>
  </diagram>
</mxfile>
